<?xml version="1.0" standalone="no"?>
<!DOCTYPE svg PUBLIC "-//W3C//DTD SVG 20010904//EN"
 "http://www.w3.org/TR/2001/REC-SVG-20010904/DTD/svg10.dtd">
<svg version="1.0"
    xmlns="http://www.w3.org/2000/svg" width="506.000000pt" height="506.000000pt" viewBox="0 0 506.000000 506.000000" preserveAspectRatio="xMidYMid meet">

    <g transform="translate(0.000000,506.000000) scale(0.100000,-0.100000)" fill="#24675D" stroke="none">
        <path d="M2373 4829 c-65 -25 -150 -101 -185 -166 -77 -142 -51 -318 65 -431
51 -50 124 -89 180 -97 l43 -7 -4 -71 c-3 -61 -7 -75 -27 -92 -34 -29 -49 -74
-35 -111 13 -32 37 -6 -293 -317 -251 -238 -384 -411 -451 -590 l-31 -82 -3
-421 -3 -420 65 -12 c36 -7 79 -15 96 -18 l30 -6 0 390 c0 402 4 453 42 542
33 77 122 200 225 312 114 125 379 373 398 373 7 0 82 -64 168 -143 230 -212
356 -356 430 -492 65 -117 67 -138 67 -582 0 -287 3 -398 11 -398 6 0 49 8 95
17 l84 18 0 390 c0 434 -4 471 -63 598 -87 188 -219 339 -610 701 -88 81 -116
113 -111 125 21 47 16 80 -15 111 -26 27 -31 40 -37 104 l-7 73 52 5 c71 7
171 59 221 115 45 51 46 66 3 35 -84 -59 -233 -68 -328 -19 -62 31 -129 101
-157 165 -29 65 -30 188 -1 252 25 56 65 104 117 141 46 34 40 35 -31 8z"/>
        <path d="M1412 3176 c-260 -273 -380 -612 -344 -972 6 -64 13 -118 14 -119 2
-2 62 -7 135 -11 l132 -7 3 424 3 424 33 95 c18 52 53 132 77 178 24 45 42 82
41 82 -2 0 -44 -42 -94 -94z"/>
        <path d="M3506 3187 c48 -92 77 -167 101 -267 12 -53 15 -135 14 -459 l-1
-394 133 8 c72 4 134 8 135 10 12 12 23 180 19 285 -14 312 -110 543 -329 788
-111 124 -126 130 -72 29z"/>
        <path d="M723 1493 c-31 -3 -53 -9 -53 -16 0 -16 82 -491 85 -495 2 -2 45 5
97 16 322 69 687 88 988 52 123 -15 283 -41 298 -49 8 -5 -29 -35 -100 -83
-174 -118 -319 -238 -482 -399 -147 -145 -150 -148 -132 -168 18 -20 19 -19
121 58 266 202 541 355 841 465 l100 38 137 -52 c270 -103 535 -250 777 -432
126 -94 129 -96 146 -77 17 19 15 23 -92 130 -181 184 -344 319 -547 454 -48
32 -85 60 -83 63 8 7 142 31 276 49 89 12 196 17 370 17 261 0 382 -12 619
-60 68 -13 125 -23 127 -22 8 8 86 499 80 505 -13 13 -485 16 -628 4 -362 -31
-724 -121 -1053 -260 -66 -28 -124 -51 -130 -51 -5 0 -50 18 -100 39 -330 142
-707 238 -1065 271 -107 9 -476 11 -597 3z"/>

    </g>


    <path fill="#DEAB4E" opacity="1.000000" stroke="none" d="
M68.996758,347.000732 
	C68.526871,343.577057 68.060318,340.152618 67.468758,335.810699 
	C75.697029,335.235168 83.415016,334.393463 91.149055,334.202820 
	C145.232605,332.869293 197.036942,342.903076 246.345993,365.445831 
	C248.229965,366.307129 251.242081,366.057831 253.211166,365.173767 
	C286.860992,350.065216 321.963959,340.238129 358.616272,336.193390 
	C382.159515,333.595306 405.766449,333.021362 429.366058,335.770966 
	C430.002655,335.845154 430.623474,336.054626 431.311798,336.214996 
	C431.407227,336.817505 431.613617,337.304230 431.534241,337.738770 
	C429.642334,348.098206 432.456268,346.965393 419.808228,346.807922 
	C401.189056,346.576050 382.500885,346.262817 363.949982,347.545258 
	C338.665649,349.293091 313.916290,354.691071 289.904816,362.920044 
	C278.430359,366.852478 267.153625,371.402344 255.949158,376.061676 
	C251.686493,377.834290 248.228928,378.209015 243.747391,376.191345 
	C210.439499,361.195953 175.585831,351.823975 139.227509,347.850830 
	C116.121529,345.325867 93.042442,345.724213 69.460823,347.019989 
	C68.998756,347.006287 69.000092,347.000000 68.996758,347.000732 
z"/>
    <path fill="#DEAB4E" opacity="1.000000" stroke="none" d="
M431.975525,315.778595 
	C431.027435,319.254974 430.939697,323.747498 428.728699,325.401306 
	C426.708771,326.912109 422.392120,325.319092 419.084900,325.147064 
	C364.602539,322.312714 311.913147,330.385284 261.791229,352.287628 
	C252.916367,356.165802 246.014206,356.239838 237.222809,352.248840 
	C210.768311,340.239380 182.859024,332.435242 154.084991,328.580627 
	C137.165100,326.314026 119.982147,326.011139 102.045532,324.841919 
	C99.783989,324.915588 98.394417,324.972321 96.543320,324.935181 
	C90.965019,324.939178 85.846161,324.977661 80.732155,325.155701 
	C77.280769,325.275879 72.915840,326.962555 70.646500,325.437805 
	C68.360420,323.901794 68.159500,319.262390 67.044945,315.982758 
	C67.044945,315.982758 67.159775,315.579681 67.126770,315.373352 
	C74.003830,314.452576 80.899147,313.346069 87.826271,313.085754 
	C142.965256,311.013397 195.710526,321.279114 246.088211,343.885254 
	C248.378799,344.913116 252.035995,344.457336 254.465881,343.371033 
	C278.414886,332.664581 303.212799,324.695465 328.918823,319.528564 
	C361.770935,312.925354 394.901825,311.359192 428.263275,314.145325 
	C429.238647,314.226776 430.187408,314.626678 431.545471,314.988037 
	C431.942383,315.097931 431.910492,315.557587 431.975525,315.778595 
z"/>

</svg>
