<svg version="1.1" id="Layer_1"
	xmlns="http://www.w3.org/2000/svg"
	xmlns:xlink="http://www.w3.org/1999/xlink" x="0px" y="0px" width="100%" viewBox="0 0 485 485" enable-background="new 0 0 485 485" xml:space="preserve">

	<path fill="#22675D" opacity="1.000000" stroke="none" d="
M255.294449,371.255066 
	C245.604645,378.934723 237.185471,377.162109 226.748444,371.709534 
	C183.329575,349.026306 136.855194,335.850616 88.125984,330.694763 
	C86.639305,330.537476 85.159088,330.319061 82.649750,329.997772 
	C83.516182,324.248230 83.973846,318.502319 85.295204,312.962433 
	C88.925232,297.743195 96.319305,284.511200 107.154846,273.172699 
	C125.656136,253.812683 147.461380,238.370911 167.955246,221.356613 
	C183.296234,208.620316 198.367554,195.391724 212.244644,181.105652 
	C226.753586,166.169098 235.837479,147.776337 239.646835,127.054626 
	C240.224792,123.910721 240.840393,121.367279 236.799377,119.355804 
	C232.505936,117.218681 233.325668,112.716248 234.781265,108.443665 
	C220.269363,104.480606 209.254318,96.276527 202.752899,82.631599 
	C197.669586,71.962952 196.883530,60.898102 200.090683,49.556946 
	C206.017975,28.596905 227.547958,13.876271 249.956207,16.794930 
	C236.113968,21.278975 226.445724,28.798979 221.345566,41.126869 
	C216.255554,53.430187 217.012787,65.563660 223.599213,77.151291 
	C234.263077,95.912399 255.624329,102.231979 277.459351,93.243286 
	C277.314362,99.098122 270.190704,103.120697 248.015198,109.807693 
	C248.666931,114.262230 248.078629,118.052307 243.580933,120.872993 
	C242.423172,121.599083 242.967896,125.783379 243.438370,128.243668 
	C246.953888,146.628128 255.211044,162.785675 266.889618,177.294617 
	C281.748871,195.755112 300.427948,210.027969 318.542358,224.989990 
	C337.655457,240.776947 356.728760,256.684631 374.841095,273.587921 
	C389.600739,287.362366 396.668610,305.538696 398.795563,325.565430 
	C398.933899,326.867737 398.813568,328.197540 398.813568,330.119659 
	C348.537994,335.014709 300.758240,348.494293 255.294449,371.255066 
z"/>
	<path fill="#C19131" opacity="1.000000" stroke="none" d="
M121.541901,356.538605 
	C162.004608,364.311768 200.012100,377.768463 235.888412,397.141968 
	C239.528458,399.107635 242.274567,399.119232 245.962204,397.131409 
	C287.424774,374.780914 331.534637,360.206055 378.148132,353.606445 
	C393.618500,351.416107 409.313232,350.828552 424.894348,349.388794 
	C428.644012,349.042297 429.854889,350.376556 429.764465,354.128998 
	C429.539703,363.455505 429.533051,372.794739 429.759949,382.121033 
	C429.851532,385.886475 428.516602,386.923126 424.874420,387.020203 
	C379.517731,388.228821 335.491058,396.594879 293.220520,413.094116 
	C276.809326,419.499847 261.013062,427.501129 245.048889,435.014008 
	C242.043732,436.428284 239.895493,436.647308 236.822433,434.989685 
	C194.316559,412.061859 149.157593,397.052765 101.244164,390.791199 
	C86.574669,388.874084 71.752518,388.059967 56.979183,387.048950 
	C53.326115,386.798950 52.075565,385.721222 52.168312,382.030029 
	C52.394276,373.037048 52.515461,364.023315 52.137478,355.040680 
	C51.935051,350.229950 53.659702,348.882080 58.134914,349.396088 
	C79.125648,351.807098 100.129723,354.101959 121.541901,356.538605 
z"/>
	<path fill="#C29336" opacity="1.000000" stroke="none" d="
M150.483276,419.615723 
	C181.210495,427.987762 210.258392,439.441833 237.908554,454.462372 
	C239.542053,455.349762 242.527542,455.236816 244.207855,454.332794 
	C290.831848,429.249451 340.405792,413.723541 393.065399,408.244049 
	C403.981384,407.108185 414.978638,406.748688 425.940643,406.067322 
	C426.914642,406.006775 427.905273,406.213440 429.642731,406.359375 
	C429.642731,415.506012 429.723511,424.600403 429.451050,433.684265 
	C429.433899,434.256104 426.613342,435.303802 425.175598,435.184357 
	C413.735565,434.234100 402.334808,432.420502 390.884247,432.055267 
	C339.655151,430.421265 291.439667,442.026520 246.295944,466.243347 
	C242.508606,468.274994 239.641205,468.395782 235.762939,466.316010 
	C190.625702,442.110962 142.423828,430.426422 91.186646,432.054962 
	C79.735565,432.418915 68.309372,433.981445 56.910271,435.320282 
	C53.357235,435.737610 52.070213,435.019745 52.156235,431.319916 
	C52.345352,423.186249 52.214909,415.045135 52.214909,406.037354 
	C85.777016,406.280334 118.158783,411.163818 150.483276,419.615723 
z"/>
	<path fill="#C29336" opacity="1.000000" stroke="none" d="
M252.999054,71.961105 
	C250.843018,73.473801 248.974762,74.772049 245.917587,76.896461 
	C247.511353,71.892044 248.407059,68.057594 249.955261,64.507713 
	C251.481293,61.008686 250.458267,59.073029 247.430740,57.216652 
	C244.210999,55.242424 241.274796,52.805763 238.428177,49.441685 
	C242.433090,49.441685 246.447754,49.270069 250.439835,49.496536 
	C253.576279,49.674461 255.304077,48.759800 256.098297,45.493031 
	C257.070435,41.494484 258.621948,37.636806 260.300171,32.582085 
	C261.977356,37.613304 263.549103,41.479229 264.515045,45.491024 
	C265.305328,48.773399 267.059540,49.651775 270.163818,49.489281 
	C274.107452,49.282848 278.070068,49.439331 282.531769,50.460968 
	C279.443268,52.702255 276.445892,55.085487 273.239502,57.143017 
	C270.312256,59.021400 269.200684,60.995125 270.726166,64.520660 
	C272.280304,68.112457 273.139313,72.005043 274.693237,77.028419 
	C269.247559,73.127335 264.860565,69.984650 260.320770,66.732521 
	C257.864197,68.483696 255.575516,70.115173 252.999054,71.961105 
z"/>
</svg>