<svg version="1.1" id="Layer_1" xmlns="http://www.w3.org/2000/svg" xmlns:xlink="http://www.w3.org/1999/xlink" x="0px" y="0px"
	 width="100%" viewBox="0 0 506 506" enable-background="new 0 0 506 506" xml:space="preserve">

<path fill="#23675D" opacity="1.000000" stroke="none" 
	d="
M307.981750,87.010330 
	C307.519714,88.908417 307.375854,90.959801 306.546722,92.681030 
	C297.552551,111.351784 282.863159,121.794456 262.002380,123.167557 
	C260.353210,123.276115 258.699921,123.321686 256.182068,123.435806 
	C257.028259,126.868576 257.615692,130.045715 258.595764,133.096725 
	C264.343048,150.988144 276.630707,163.702271 292.030273,173.417068 
	C306.803802,182.736938 322.183533,191.091507 337.217987,200.003326 
	C351.168549,208.272675 364.420563,217.575546 375.306732,229.693283 
	C396.722504,253.531860 401.753845,280.774872 391.267792,310.985565 
	C390.339539,313.659882 389.214752,315.555023 385.892487,315.870483 
	C352.313965,319.058838 321.537140,330.541199 292.690491,347.654816 
	C291.702820,348.240784 290.604706,348.640503 289.224762,348.985352 
	C288.891479,348.843689 288.837921,348.877777 288.837921,348.877777 
	C293.469910,336.396820 298.210907,323.954041 302.607880,311.390808 
	C303.217255,309.649658 302.876740,306.624908 301.711304,305.355682 
	C282.798431,284.758606 269.061859,261.316864 261.767090,234.221924 
	C261.529663,233.340088 261.104614,232.508759 259.916870,231.808517 
	C259.916870,235.216782 259.916962,238.625031 259.916870,242.033295 
	C259.916199,266.015381 259.952667,289.997589 259.865509,313.979370 
	C259.855164,316.832092 260.444946,318.712433 262.983887,320.571136 
	C270.146973,325.815125 270.830048,335.882172 264.866760,342.102875 
	C259.037109,348.184174 249.210938,348.078064 243.503235,341.872162 
	C237.725967,335.590668 238.831055,325.743896 245.676636,320.201172 
	C247.101990,319.047089 248.595123,316.919189 248.604568,315.231934 
	C248.754639,288.420868 248.670837,261.608459 248.622406,234.796387 
	C248.620773,233.892334 248.429688,232.988632 247.557617,231.971710 
	C246.564865,235.210861 245.606781,238.461105 244.573761,241.687363 
	C237.090317,265.059509 224.722672,285.612366 208.173660,303.610321 
	C205.201813,306.842377 204.863968,309.358582 206.376816,313.247925 
	C210.895584,324.865204 215.020935,336.635498 219.131821,348.692169 
	C218.963699,349.038300 218.994614,348.992584 218.994598,348.992615 
	C210.605331,344.636047 202.321960,340.059174 193.806244,335.965698 
	C171.428604,325.208893 147.920090,318.245819 123.148445,315.917572 
	C119.716972,315.595032 118.316010,313.869934 117.201553,310.971069 
	C105.017021,279.277496 114.256897,245.597641 141.461182,221.620331 
	C158.500107,206.602600 178.362549,196.073151 197.955414,185.060181 
	C211.764587,177.298187 225.438721,169.326874 236.318222,157.474915 
	C245.204544,147.794342 250.813553,136.525452 253.167053,123.177040 
	C237.143066,120.347740 224.354034,112.719337 215.766159,98.856270 
	C209.588470,88.883827 207.075287,77.960976 208.425903,66.335861 
	C210.978073,44.368778 227.286057,25.958754 246.536575,23.588058 
	C245.493698,24.737288 244.870544,25.664053 244.032089,26.312372 
	C228.545258,38.287193 222.138611,54.021847 226.672089,73.016830 
	C231.044098,91.335167 243.258270,103.012405 261.853241,106.405533 
	C280.828339,109.868019 296.143219,102.910614 307.710907,87.114243 
	C308.029175,87.042328 307.981750,87.010330 307.981750,87.010330 
z"/>
<path fill="#C19233" opacity="1.000000" stroke="none" 
	d="
M202.475693,359.295868 
	C188.042892,357.059021 173.603836,354.861542 159.180695,352.564087 
	C154.092804,351.753632 152.573059,353.638153 152.774033,358.791931 
	C153.189346,369.442017 152.886993,380.119751 152.904739,390.786041 
	C152.907425,392.401642 153.043900,394.016998 153.136169,396.015472 
	C157.411407,395.606079 161.178329,395.203613 164.952667,394.890472 
	C195.321136,392.371307 222.444534,401.411865 247.466507,418.015259 
	C255.759247,423.517944 252.749237,423.684387 260.996735,418.129944 
	C283.667572,402.861847 308.422852,394.086700 335.993622,394.417480 
	C342.269470,394.492767 348.536469,395.306915 355.513000,395.834290 
	C355.513000,392.147156 355.513641,388.724976 355.512848,385.302826 
	C355.510742,376.136444 355.334930,366.965332 355.584015,357.805786 
	C355.696136,353.684082 354.451752,352.362488 350.211792,352.473785 
	C332.912201,352.928070 316.148102,355.992065 299.844910,361.745575 
	C297.865112,362.444275 295.774353,362.828674 293.539886,362.704132 
	C316.697693,347.965454 341.949890,339.756317 369.974915,337.739990 
	C369.974915,344.359711 369.974915,350.438080 369.974915,357.061371 
	C382.665649,355.186646 394.721375,353.405731 407.287476,351.549438 
	C407.287476,385.766693 407.287476,419.153992 407.287476,453.831787 
	C349.328705,435.371704 299.271973,451.112976 254.314087,489.157959 
	C209.445572,451.267181 159.463425,435.219910 101.287590,453.913177 
	C101.287590,419.377228 101.287590,386.114716 101.287590,351.593811 
	C113.556023,353.384766 125.577789,355.139709 138.229950,356.986664 
	C138.229950,350.720917 138.229950,344.638519 138.229950,337.832245 
	C151.711258,338.454865 164.139267,340.908081 176.893829,345.155334 
	C181.955093,347.088409 186.468597,348.577972 190.982101,350.067505 
	C191.444489,350.190155 191.906876,350.312805 192.799408,350.911621 
	C194.541397,351.865814 195.853256,352.343872 197.165100,352.821930 
	C197.165100,352.821930 197.044479,352.925110 197.195160,353.212891 
	C198.685944,353.936584 200.026016,354.372437 201.366104,354.808350 
	C201.847290,354.952698 202.328476,355.097046 203.080734,355.751648 
	C203.964981,356.429749 204.578156,356.597626 205.191345,356.765472 
	C205.191345,356.765472 204.970779,356.832550 205.114792,357.122589 
	C204.331100,358.040375 203.403397,358.668121 202.475693,359.295868 
M202.751297,359.556671 
	C203.403397,358.668121 204.331100,358.040375 205.220184,357.075195 
	C209.171982,358.548309 213.982132,359.232605 215.968643,364.568817 
	C211.379349,362.883942 207.203125,361.350708 202.751297,359.556671 
M190.730927,349.824463 
	C186.468597,348.577972 181.955093,347.088409 177.227310,345.326050 
	C181.501938,346.562622 185.990845,348.072052 190.730927,349.824463 
M196.999405,352.560181 
	C195.853256,352.343872 194.541397,351.865814 193.082108,351.137177 
	C194.234344,351.357208 195.534027,351.827820 196.999405,352.560181 
M201.151581,354.533081 
	C200.026016,354.372437 198.685944,353.936584 197.232300,353.142761 
	C198.391510,353.275818 199.664291,353.766815 201.151581,354.533081
M119.874519,393.500183 
	C119.874519,405.263977 119.874519,417.027802 119.874519,429.288361 
	C123.256462,428.986023 125.863731,428.579529 128.475433,428.548706 
	C141.586472,428.393707 154.826614,427.124786 167.784500,428.492096 
	C196.837433,431.557892 222.917480,443.088654 246.889496,459.571472 
	C254.504135,464.807220 254.429245,464.600006 262.016327,459.435425 
	C295.958435,436.330933 332.954926,423.985870 374.488068,427.906128 
	C379.056335,428.337341 383.617615,428.842163 388.843781,429.381042 
	C388.843781,410.387207 388.884033,392.104980 388.717957,373.824585 
	C388.710114,372.963623 386.871368,371.394501 385.878448,371.389008 
	C380.773529,371.360718 375.666351,371.736176 369.930298,371.999542 
	C369.930298,386.222687 369.930298,399.938507 369.930298,414.633636 
	C325.696899,400.713531 287.972015,412.733002 254.257324,441.222687 
	C220.262039,412.554535 182.683746,400.793793 138.682373,414.628052 
	C138.682373,399.821594 138.682373,386.100616 138.682373,372.048401 
	C133.459152,371.757507 128.830917,371.571899 124.215599,371.218048 
	C120.992226,370.970886 119.725838,372.222382 119.831268,375.510651 
	C120.012688,381.168488 119.876968,386.836548 119.874519,393.500183 
z"/>
<path fill="#C09339" opacity="1.000000" stroke="none" 
	d="
M258.068542,70.897797 
	C260.317139,66.589249 258.680084,64.107521 255.269882,61.913162 
	C251.524139,59.502895 248.023590,56.711552 244.632675,52.893204 
	C248.812698,52.893204 253.049026,52.462536 257.158783,52.999939 
	C262.549957,53.704910 264.945526,51.514614 266.066620,46.479721 
	C266.999176,42.291660 268.660767,38.265923 271.031281,33.930099 
	C272.659912,38.780426 274.460083,43.582047 275.856384,48.498367 
	C276.773254,51.726559 278.326111,53.149399 281.837769,52.940392 
	C286.719452,52.649845 291.631409,52.867298 296.932678,54.065685 
	C292.848236,57.036835 288.859161,60.152954 284.643860,62.925095 
	C282.090393,64.604378 281.601227,66.313652 282.652649,69.160500 
	C284.407745,73.912628 285.736786,78.822105 287.245209,83.665344 
	C286.891876,83.901672 286.538574,84.138000 286.185242,84.374329 
	C282.323181,81.605522 278.327576,79.001472 274.642822,76.013962 
	C271.867126,73.763489 269.725708,73.555916 266.840454,75.960091 
	C263.195618,78.997139 259.100006,81.493149 255.198822,84.222534 
	C254.771439,84.000763 254.344040,83.778984 253.916641,83.557213 
	C255.264282,79.466202 256.611908,75.375198 258.068542,70.897797 
z"/>
</svg>