<svg version="1.1" id="Layer_1"
	xmlns="http://www.w3.org/2000/svg"
	xmlns:xlink="http://www.w3.org/1999/xlink" x="0px" y="0px" width="100%" viewBox="0 0 800 800" enable-background="new 0 0 800 800" xml:space="preserve">

	<path fill="#DEAB4E" opacity="1.000000" stroke="none" d="
M462.315491,165.744232 
	C502.489990,190.932785 522.937195,226.929749 523.125793,274.005035 
	C523.358154,331.999695 523.235046,389.996094 523.070374,447.991211 
	C523.058411,452.207703 524.345459,454.638672 527.825989,456.814758 
	C556.392761,474.675537 579.811768,497.722626 597.395264,526.559326 
	C619.760803,563.238281 628.518188,602.943909 623.820374,645.630615 
	C623.729553,646.455933 623.752563,647.407288 623.342468,648.061829 
	C622.288208,649.744690 621.196960,652.370789 619.789062,652.602112 
	C618.291138,652.848145 615.957764,651.137756 614.775085,649.654846 
	C608.040283,641.210754 602.207886,631.950012 594.835999,624.128906 
	C572.122009,600.030518 543.947571,585.853882 511.224579,581.141174 
	C483.369873,577.129639 456.527649,581.096802 430.824371,592.755310 
	C427.613251,594.211853 426.393372,595.901184 426.439209,599.437073 
	C426.627228,613.933472 426.521790,628.433777 426.513977,642.932617 
	C426.513275,644.262939 426.915161,645.905823 426.292969,646.854553 
	C425.202026,648.517883 423.462250,649.755554 421.994324,651.171570 
	C420.716095,649.582031 418.367218,648.017700 418.328979,646.398865 
	C418.022156,633.407043 418.151398,620.404907 418.147522,607.405884 
	C418.146820,605.091614 418.147430,602.777405 418.147430,599.788757 
	C410.737091,603.496765 403.825989,606.960938 396.908417,610.412048 
	C395.271912,611.228394 393.690399,612.364746 391.952240,612.731812 
	C383.859985,614.440735 381.894806,619.532349 382.722534,627.182800 
	C383.381958,633.277649 382.823547,639.500977 382.868988,645.666809 
	C382.890778,648.624573 382.347809,651.104919 378.698456,651.148804 
	C374.933716,651.194031 374.510559,648.442322 374.487854,645.649658 
	C374.421814,637.512695 374.464386,629.374817 374.464386,620.477966 
	C367.088013,622.925232 360.409546,625.232117 353.674774,627.360718 
	C309.409607,641.351074 264.172272,645.607361 218.032425,640.881287 
	C206.067337,639.655701 196.010986,634.857605 188.454025,625.124512 
	C188.019989,625.227783 187.585968,625.330994 187.151932,625.434265 
	C186.494568,632.242676 186.034485,639.079773 185.052124,645.840942 
	C184.779526,647.717102 183.258392,650.507446 181.786179,650.896606 
	C178.179001,651.850220 176.603088,649.260071 177.028214,645.883789 
	C178.251205,636.170898 179.712448,626.488098 180.962708,616.778381 
	C181.269943,614.392334 181.534592,611.877380 181.123535,609.544128 
	C179.481766,600.224976 180.754990,591.438599 184.524551,582.758240 
	C205.617157,534.187439 235.936523,492.326233 275.545197,457.213715 
	C278.043701,454.998840 279.134186,453.029816 278.533722,449.605804 
	C277.848724,445.699768 277.834991,441.644623 277.836182,437.654358 
	C277.853424,380.660156 277.490570,323.661285 278.103973,266.673065 
	C278.685974,212.602493 320.671936,162.953217 373.775085,151.930771 
	C404.924774,145.465149 434.313721,149.874710 462.315491,165.744232 
M615.744202,604.036316 
	C612.232300,574.736389 601.931641,548.016968 585.525879,523.524414 
	C568.247131,497.728577 545.727722,477.552216 519.500610,461.316345 
	C516.145935,459.239655 514.886841,456.883209 514.896240,452.863770 
	C515.034424,393.871582 515.070129,334.878784 514.901306,275.886749 
	C514.877625,267.597534 514.228088,259.214752 512.873779,251.040039 
	C503.631256,195.250854 449.834625,153.225021 393.567657,157.568375 
	C333.183472,162.229538 287.449493,208.919296 286.293121,269.290619 
	C285.208282,325.929047 285.345978,382.614990 286.230804,439.259918 
	C287.035828,490.796265 321.088928,533.922546 370.096893,547.293457 
	C379.463013,549.848816 389.456390,550.059387 399.116699,551.621826 
	C400.958923,551.919800 403.104950,553.136169 404.124023,554.610779 
	C404.678406,555.413025 403.539062,558.034912 402.448914,559.114258 
	C401.611481,559.943420 399.658508,559.808044 398.198761,559.822937 
	C349.330658,560.322754 301.418152,525.928345 284.989197,478.537506 
	C283.388336,473.919647 282.061371,469.206879 280.322296,463.623230 
	C270.511871,473.597382 260.843292,482.744537 251.953598,492.594666 
	C226.414886,520.892456 206.349640,552.752319 191.503815,587.864014 
	C182.940125,608.117920 194.975540,629.290771 216.660675,632.146240 
	C240.219269,635.248413 263.847717,635.186890 287.431976,632.698181 
	C333.554169,627.831177 376.678162,613.631042 416.929108,590.570557 
	C439.824066,577.453613 464.729980,570.883423 490.958588,571.321777 
	C541.096069,572.159668 582.008301,592.363525 612.908569,632.191772 
	C613.729431,633.249817 614.674255,634.211731 615.843323,635.538574 
	C615.843323,624.830078 615.843323,614.887878 615.744202,604.036316 
z"/>

	<path fill="#DEAB4E" opacity="1.000000" stroke="none" d="
M459.946777,228.059387 
	C484.145752,248.010208 496.479370,273.307343 496.510193,304.383911 
	C496.528717,323.032806 497.513031,341.795074 495.857544,360.309113 
	C491.491333,409.138611 467.153320,445.668365 424.187744,469.211182 
	C409.201996,477.422546 393.422302,476.510315 378.277679,468.376526 
	C339.210602,447.394409 315.125092,415.250580 306.595734,371.664124 
	C305.481720,365.971344 304.684265,360.118042 304.640656,354.332306 
	C304.491272,334.520355 303.798065,314.646057 305.036041,294.903656 
	C307.727051,251.988541 342.009186,215.467926 384.495209,208.837158 
	C412.258759,204.504105 437.321503,210.778259 459.946777,228.059387 
M451.432465,438.930237 
	C469.967316,419.725189 481.468781,397.016541 486.492859,370.751099 
	C496.383667,319.042847 457.760406,269.763702 405.053436,267.179474 
	C347.966309,264.380493 301.683960,317.024048 315.374603,374.041229 
	C324.890656,413.672699 347.532654,442.880096 383.521729,461.688416 
	C395.980286,468.199493 409.186554,468.559448 421.232025,461.198608 
	C431.666962,454.821960 441.069061,446.755066 451.432465,438.930237 
M321.988892,299.490356 
	C343.575531,270.554840 372.488892,256.425171 408.419708,259.297180 
	C444.509369,262.181885 470.432556,281.544556 487.985321,314.296814 
	C490.022949,276.407532 476.834473,247.112106 445.134796,228.319717 
	C413.649261,209.654282 381.307953,210.839508 351.014954,231.370377 
	C322.499237,250.696716 310.874084,278.814484 313.061615,313.878601 
	C316.241241,308.729767 318.911285,304.406067 321.988892,299.490356 
z"/>
	<path fill="#DEAB4E" opacity="1.000000" stroke="none" d="
M464.770050,486.736877 
	C492.456543,478.131958 516.274170,483.970764 536.550537,504.141724 
	C540.798096,508.367218 544.914856,512.723999 549.153748,516.958374 
	C551.231445,519.033813 552.714294,521.380981 550.363098,523.862305 
	C547.783325,526.584900 545.316467,525.056702 543.131958,522.801208 
	C538.732178,518.258423 534.298462,513.747986 529.841125,509.261627 
	C507.787292,487.064362 475.408112,485.053497 450.499878,504.097900 
	C424.860718,523.701233 396.830170,527.348450 366.751678,515.986816 
	C364.275909,515.051697 361.948822,513.719177 359.563293,512.549683 
	C356.608704,511.101227 353.349121,509.384216 355.542114,505.495941 
	C357.542816,501.948639 360.523132,504.018372 363.403046,505.041016 
	C371.649567,507.969391 379.841797,511.619141 388.379517,513.045837 
	C408.918549,516.478027 427.403717,510.756073 444.220184,498.540070 
	C450.471649,493.998840 457.649933,490.733490 464.770050,486.736877 
z"/>
	<path fill="#DEAB4E" opacity="1.000000" stroke="none" d="
M547.152954,546.907837 
	C564.627075,553.814209 578.698425,564.565308 589.705566,579.316956 
	C590.301636,580.115784 591.298828,580.918335 591.347107,581.762756 
	C591.465332,583.829224 591.922729,586.644653 590.817200,587.845459 
	C588.796082,590.040894 586.558655,588.751282 584.548157,586.576965 
	C578.259705,579.776489 572.393433,572.352234 565.168396,566.696411 
	C546.053589,551.733093 523.991455,546.563660 499.957916,549.668884 
	C497.980133,549.924438 495.984100,550.048950 494.013153,550.344910 
	C491.157288,550.773865 488.812042,550.023743 488.373718,546.964417 
	C487.937347,543.918884 490.013885,542.417236 492.822479,542.116272 
	C498.602081,541.496765 504.386749,540.701965 510.185638,540.530457 
	C522.772217,540.157959 535.015991,542.174866 547.152954,546.907837 
z"/>


</svg>